# xmcd
#
# Track frame offsets: 
#        150
#        14287
#        27427
#        41554
#        57993
#        72683
#
# Disc length: 1372 seconds
#
# Revision: 0
# Processed by: cddbd v1.5.2PL0 Copyright (c) Steve Scherf et al.
# Submitted via: ExactAudioCopy v1.3
#
DISCID=51055a06
DTITLE=Colt Ford - Country Is as Country Does - EP
DYEAR=2009
DGENRE=Country
TTITLE0=Buck 'em
TTITLE1=Huntin' the World
TTITLE2=Big White Redneck
TTITLE3=Day in the Life
TTITLE4=Left Ya'll in the Dust (Nascar Song)
TTITLE5=Dirt Road Anthem
EXTD=
EXTT0=
EXTT1=
EXTT2=
EXTT3=
EXTT4=
EXTT5=
PLAYORDER=
